<?xml version="1.0" encoding="UTF-8" standalone="no"?>
<!-- Created with Inkscape (http://www.inkscape.org/) -->

<svg
   width="264.13333mm"
   height="46.113277mm"
   viewBox="0 0 264.13333 46.113276"
   version="1.1"
   id="SVGRoot"
   sodipodi:docname="drawing2.svg"
   inkscape:export-filename="/home/x/bitmap5.png"
   inkscape:export-xdpi="96"
   inkscape:export-ydpi="96"
   inkscape:version="1.1.2 (0a00cf5339, 2022-02-04)"
   xmlns:inkscape="http://www.inkscape.org/namespaces/inkscape"
   xmlns:sodipodi="http://sodipodi.sourceforge.net/DTD/sodipodi-0.dtd"
   xmlns="http://www.w3.org/2000/svg"
   xmlns:svg="http://www.w3.org/2000/svg">
  <sodipodi:namedview
     id="namedview9823"
     pagecolor="#000000"
     bordercolor="#999999"
     borderopacity="1.0"
     inkscape:pageshadow="0"
     inkscape:pageopacity="0"
     inkscape:pagecheckerboard="true"
     inkscape:document-units="mm"
     showgrid="false"
     inkscape:zoom="1.3701319"
     inkscape:cx="262.74843"
     inkscape:cy="-18.246419"
     inkscape:window-width="1846"
     inkscape:window-height="1010"
     inkscape:window-x="0"
     inkscape:window-y="0"
     inkscape:window-maximized="1"
     inkscape:current-layer="layer1" />
  <defs
     id="defs9818" />
  <g
     inkscape:label="Layer 1"
     inkscape:groupmode="layer"
     id="layer1"
     transform="translate(93.55898,-171.20164)">
    <g
       id="g3922"
       transform="matrix(1.4111111,0,0,-1.4111111,-24.655415,194.21616)"
       style="fill:#f9f9f9">
      <path
         d="m 0,0 c 0.446,0 0.814,0.037 1.105,0.113 0.29,0.074 0.523,0.176 0.7,0.303 0.174,0.129 0.296,0.281 0.365,0.457 0.066,0.176 0.101,0.373 0.101,0.59 0,0.457 -0.216,0.84 -0.649,1.144 -0.433,0.303 -1.176,0.629 -2.229,0.985 -0.46,0.16 -0.921,0.346 -1.38,0.556 -0.46,0.209 -0.872,0.475 -1.237,0.791 -0.364,0.317 -0.662,0.702 -0.893,1.157 -0.229,0.453 -0.344,1.002 -0.344,1.65 0,0.649 0.122,1.236 0.365,1.754 0.243,0.521 0.587,0.963 1.034,1.33 0.446,0.365 0.986,0.645 1.623,0.842 0.634,0.193 1.352,0.291 2.147,0.291 0.947,0 1.766,-0.1 2.455,-0.305 0.691,-0.199 1.258,-0.424 1.703,-0.666 L 3.955,8.496 C 3.562,8.699 3.125,8.879 2.646,9.035 2.165,9.191 1.589,9.268 0.912,9.268 0.155,9.268 -0.389,9.164 -0.72,8.955 -1.051,8.744 -1.217,8.424 -1.217,7.99 -1.217,7.734 -1.156,7.518 -1.035,7.342 -0.913,7.166 -0.741,7.008 -0.518,6.865 -0.293,6.723 -0.038,6.596 0.254,6.48 0.544,6.365 0.866,6.246 1.215,6.125 1.947,5.855 2.582,5.588 3.122,5.322 3.664,5.061 4.113,4.752 4.472,4.4 4.83,4.049 5.097,3.637 5.272,3.164 5.448,2.689 5.535,2.117 5.535,1.441 5.535,0.129 5.076,-0.889 4.157,-1.611 3.237,-2.334 1.852,-2.695 0,-2.695 c -0.622,0 -1.185,0.037 -1.684,0.111 -0.5,0.074 -0.942,0.166 -1.328,0.275 -0.385,0.108 -0.716,0.221 -0.992,0.344 -0.278,0.123 -0.511,0.236 -0.701,0.344 l 0.893,2.514 C -3.393,0.664 -2.876,0.457 -2.26,0.275 -1.646,0.094 -0.893,0 0,0"
         style="fill:#f9f9f9;fill-opacity:1;fill-rule:nonzero;stroke:none"
         id="path3924" />
    </g>
    <g
       id="g3926"
       transform="matrix(1.4111111,0,0,-1.4111111,-5.4717816,182.2824)"
       style="fill:#f9f9f9">
      <path
         d="m 0,0 c -0.07,-0.205 -0.172,-0.482 -0.309,-0.832 -0.136,-0.354 -0.29,-0.76 -0.464,-1.219 -0.174,-0.461 -0.368,-0.967 -0.582,-1.519 -0.216,-0.555 -0.433,-1.135 -0.656,-1.742 h 4.02 C 1.794,-4.705 1.586,-4.123 1.384,-3.566 1.183,-3.01 0.991,-2.502 0.81,-2.041 0.628,-1.582 0.469,-1.178 0.333,-0.826 0.196,-0.477 0.086,-0.199 0,0 m 3.801,-10.867 c -0.156,0.486 -0.324,0.988 -0.504,1.504 -0.179,0.513 -0.359,1.025 -0.539,1.537 h -5.487 c -0.178,-0.514 -0.355,-1.026 -0.533,-1.541 -0.178,-0.518 -0.345,-1.018 -0.499,-1.5 h -3.285 c 0.529,1.512 1.03,2.91 1.506,4.195 0.473,1.285 0.938,2.494 1.393,3.631 0.454,1.135 0.9,2.213 1.342,3.234 0.441,1.022 0.898,2.016 1.373,2.991 H 1.567 C 2.03,2.209 2.483,1.215 2.932,0.193 3.379,-0.828 3.831,-1.906 4.287,-3.041 4.741,-4.178 5.206,-5.387 5.681,-6.672 6.155,-7.957 6.66,-9.355 7.19,-10.867 Z"
         style="fill:#f9f9f9;fill-opacity:1;fill-rule:nonzero;stroke:none"
         id="path3928" />
    </g>
    <g
       id="g3930"
       transform="matrix(1.4111111,0,0,-1.4111111,12.484182,177.79)"
       style="fill:#f9f9f9">
      <path
         d="m 0,0 c 0.243,-0.445 0.524,-0.996 0.845,-1.654 0.318,-0.655 0.649,-1.366 0.996,-2.127 0.345,-0.764 0.686,-1.547 1.026,-2.344 0.339,-0.797 0.657,-1.549 0.956,-2.248 0.298,0.699 0.617,1.451 0.955,2.248 0.339,0.797 0.68,1.58 1.028,2.344 0.346,0.761 0.676,1.472 0.994,2.127 0.32,0.658 0.602,1.209 0.845,1.654 h 2.88 c 0.135,-0.934 0.26,-1.975 0.374,-3.133 0.116,-1.156 0.217,-2.359 0.304,-3.607 0.09,-1.252 0.17,-2.508 0.244,-3.764 0.074,-1.258 0.139,-2.439 0.194,-3.547 H 8.557 c -0.038,1.365 -0.096,2.85 -0.161,4.459 -0.07,1.608 -0.169,3.231 -0.305,4.867 C 7.848,-5.293 7.575,-5.92 7.278,-6.611 6.98,-7.301 6.684,-7.99 6.393,-8.68 6.102,-9.369 5.82,-10.027 5.549,-10.656 5.276,-11.285 5.046,-11.822 4.857,-12.27 H 2.646 c -0.189,0.448 -0.42,0.985 -0.69,1.614 -0.272,0.629 -0.555,1.287 -0.846,1.976 -0.291,0.69 -0.586,1.379 -0.883,2.069 -0.299,0.691 -0.57,1.318 -0.815,1.886 -0.135,-1.636 -0.236,-3.259 -0.305,-4.867 -0.066,-1.609 -0.121,-3.094 -0.16,-4.459 h -3.083 c 0.053,1.108 0.116,2.289 0.192,3.547 0.075,1.256 0.155,2.512 0.245,3.764 0.087,1.248 0.187,2.451 0.304,3.607 0.113,1.158 0.238,2.199 0.374,3.133 z"
         style="fill:#f9f9f9;fill-opacity:1;fill-rule:nonzero;stroke:none"
         id="path3932" />
    </g>
    <g
       id="g3934"
       transform="matrix(1.4111111,0,0,-1.4111111,43.732534,190.95028)"
       style="fill:#f9f9f9">
      <path
         d="M 0,0 C 0,-0.689 -0.079,-1.34 -0.234,-1.947 -0.39,-2.555 -0.66,-3.086 -1.045,-3.541 -1.431,-3.992 -1.951,-4.352 -2.607,-4.613 -3.263,-4.879 -4.091,-5.01 -5.091,-5.01 c -0.919,0 -1.71,0.112 -2.372,0.334 -0.662,0.223 -1.211,0.485 -1.642,0.781 l 1.055,2.454 c 0.389,-0.231 0.81,-0.434 1.256,-0.61 0.445,-0.176 0.933,-0.263 1.461,-0.263 0.771,0 1.323,0.189 1.662,0.57 0.338,0.377 0.505,1.012 0.505,1.904 V 9.326 H 0 Z"
         style="fill:#f9f9f9;fill-opacity:1;fill-rule:nonzero;stroke:none"
         id="path3936" />
    </g>
    <g
       id="g3938"
       transform="matrix(1.4111111,0,0,-1.4111111,55.777918,198.01952)"
       style="fill:#f9f9f9">
      <path
         d="M 0,0 C -0.987,0 -1.838,0.137 -2.556,0.414 -3.271,0.691 -3.862,1.078 -4.33,1.57 -4.796,2.064 -5.14,2.652 -5.363,3.334 -5.585,4.018 -5.698,4.771 -5.698,5.596 v 8.74 h 3.162 V 5.859 c 0,-0.566 0.064,-1.048 0.195,-1.449 0.128,-0.398 0.303,-0.721 0.526,-0.972 0.223,-0.25 0.493,-0.432 0.812,-0.538 0.317,-0.109 0.666,-0.162 1.043,-0.162 0.771,0 1.397,0.237 1.875,0.705 0.482,0.477 0.721,1.282 0.721,2.416 v 8.477 H 5.799 V 5.596 C 5.799,4.771 5.685,4.016 5.454,3.326 5.224,2.635 4.873,2.045 4.4,1.551 3.928,1.057 3.326,0.674 2.595,0.404 1.865,0.135 0.999,0 0,0"
         style="fill:#f9f9f9;fill-opacity:1;fill-rule:nonzero;stroke:none"
         id="path3940" />
    </g>
    <g
       id="g3942"
       transform="matrix(1.4111111,0,0,-1.4111111,81.558354,197.61724)"
       style="fill:#f9f9f9">
      <path
         d="m 0,0 c -0.905,1.605 -1.886,3.193 -2.939,4.762 -1.055,1.57 -2.179,3.049 -3.366,4.441 V 0 h -3.124 v 14.051 h 2.574 c 0.448,-0.446 0.941,-0.994 1.482,-1.643 0.54,-0.648 1.091,-1.342 1.652,-2.08 0.561,-0.734 1.119,-1.498 1.673,-2.291 0.554,-0.791 1.076,-1.551 1.561,-2.279 v 8.293 H 2.656 V 0 Z"
         style="fill:#f9f9f9;fill-opacity:1;fill-rule:nonzero;stroke:none"
         id="path3944" />
    </g>
    <g
       id="g3946"
       transform="matrix(1.4111111,0,0,-1.4111111,99.557498,181.22408)"
       style="fill:#f9f9f9">
      <path
         d="m 0,0 c -1.474,0 -2.539,-0.41 -3.195,-1.227 -0.656,-0.816 -0.982,-1.937 -0.982,-3.357 0,-0.689 0.08,-1.312 0.241,-1.875 0.163,-0.562 0.407,-1.045 0.731,-1.449 0.325,-0.406 0.73,-0.719 1.218,-0.944 0.486,-0.222 1.053,-0.334 1.702,-0.334 0.352,0 0.652,0.006 0.904,0.022 0.249,0.012 0.468,0.041 0.658,0.08 v 4.889 h 3.164 v -6.957 c -0.379,-0.149 -0.987,-0.309 -1.826,-0.477 -0.839,-0.17 -1.872,-0.254 -3.102,-0.254 -1.055,0 -2.01,0.162 -2.87,0.488 -0.858,0.325 -1.59,0.795 -2.2,1.418 -0.608,0.623 -1.079,1.385 -1.409,2.291 -0.331,0.907 -0.497,1.94 -0.497,3.102 0,1.176 0.183,2.219 0.547,3.123 0.366,0.908 0.866,1.676 1.5,2.303 0.638,0.627 1.383,1.105 2.241,1.429 0.859,0.325 1.775,0.485 2.749,0.485 0.662,0 1.259,-0.043 1.794,-0.129 C 1.901,2.535 2.361,2.436 2.746,2.322 3.131,2.207 3.449,2.09 3.699,1.967 3.949,1.846 4.128,1.75 4.236,1.684 L 3.325,-0.852 c -0.433,0.229 -0.93,0.43 -1.491,0.6 C 1.273,-0.084 0.661,0 0,0"
         style="fill:#f9f9f9;fill-opacity:1;fill-rule:nonzero;stroke:none"
         id="path3948" />
    </g>
    <g
       id="g3950"
       transform="matrix(1.4111111,0,0,-1.4111111,116.83952,197.61724)"
       style="fill:#f9f9f9">
      <path
         d="M 0,0 V 14.051 H 9.489 V 11.393 H 3.163 V 8.637 H 8.782 V 6.041 H 3.163 V 2.656 H 9.956 V 0 Z"
         style="fill:#f9f9f9;fill-opacity:1;fill-rule:nonzero;stroke:none"
         id="path3952" />
    </g>
    <g
       id="g3954"
       transform="matrix(1.4111111,0,0,-1.4111111,142.41732,182.05916)"
       style="fill:#f9f9f9">
      <path
         d="m 0,0 c 0,0.312 -0.1,0.59 -0.302,0.834 -0.204,0.246 -0.542,0.367 -1.016,0.367 -0.431,0 -0.766,-0.133 -1.003,-0.394 -0.236,-0.266 -0.354,-0.61 -0.354,-1.028 0,-0.349 0.099,-0.691 0.304,-1.023 0.202,-0.33 0.464,-0.647 0.784,-0.947 0.436,0.242 0.806,0.533 1.121,0.873 C -0.156,-0.98 0,-0.541 0,0 m -3.932,-6.996 c 0,-0.203 0.039,-0.412 0.12,-0.625 0.083,-0.219 0.214,-0.418 0.398,-0.6 0.183,-0.181 0.416,-0.33 0.701,-0.443 0.286,-0.117 0.631,-0.174 1.037,-0.174 0.569,0 1.068,0.078 1.494,0.227 0.428,0.15 0.783,0.349 1.067,0.597 l -3.266,3.244 c -0.188,-0.093 -0.373,-0.21 -0.555,-0.345 -0.18,-0.137 -0.345,-0.293 -0.493,-0.477 -0.148,-0.181 -0.268,-0.385 -0.364,-0.615 -0.091,-0.229 -0.139,-0.494 -0.139,-0.789 m -2.819,-0.303 c 0,0.514 0.075,0.983 0.223,1.406 0.147,0.426 0.345,0.811 0.595,1.157 0.25,0.343 0.54,0.648 0.871,0.912 0.33,0.263 0.678,0.496 1.041,0.699 -0.32,0.396 -0.608,0.82 -0.864,1.275 -0.256,0.45 -0.386,0.95 -0.386,1.489 0,1.191 0.358,2.105 1.074,2.748 0.718,0.64 1.705,0.961 2.963,0.961 0.635,0 1.188,-0.082 1.66,-0.252 C 0.901,2.928 1.297,2.699 1.615,2.406 1.931,2.115 2.171,1.777 2.333,1.393 2.496,1.006 2.576,0.592 2.576,0.146 2.576,-0.682 2.343,-1.414 1.875,-2.055 1.409,-2.697 0.817,-3.234 0.1,-3.668 l 2.283,-2.26 c 0.121,0.268 0.238,0.608 0.35,1.02 0.112,0.41 0.184,0.771 0.207,1.08 L 5.457,-4.152 C 5.429,-4.41 5.382,-4.691 5.314,-4.992 5.247,-5.299 5.16,-5.607 5.061,-5.918 4.958,-6.229 4.843,-6.539 4.714,-6.852 4.585,-7.162 4.449,-7.449 4.298,-7.703 c 0.433,-0.486 0.856,-1.018 1.268,-1.59 0.412,-0.576 0.768,-1.154 1.065,-1.732 h -3.09 c -0.113,0.175 -0.265,0.396 -0.453,0.662 -0.189,0.261 -0.379,0.488 -0.567,0.677 -0.542,-0.433 -1.17,-0.794 -1.888,-1.085 -0.717,-0.293 -1.52,-0.44 -2.413,-0.44 -0.948,0 -1.738,0.121 -2.373,0.357 -0.637,0.235 -1.147,0.54 -1.534,0.911 -0.385,0.371 -0.658,0.789 -0.821,1.255 -0.161,0.465 -0.243,0.928 -0.243,1.389"
         style="fill:#f9f9f9;fill-opacity:1;fill-rule:nonzero;stroke:none"
         id="path3956" />
    </g>
    <g
       id="g3958"
       transform="matrix(1.4111111,0,0,-1.4111111,160.42,181.36744)"
       style="fill:#f9f9f9">
      <path
         d="m 0,0 c -0.234,0 -0.437,-0.008 -0.62,-0.02 -0.184,-0.015 -0.355,-0.027 -0.516,-0.041 v -3.812 h 0.889 c 1.19,0 2.043,0.15 2.557,0.445 0.514,0.299 0.771,0.805 0.771,1.52 0,0.693 -0.261,1.181 -0.782,1.472 C 1.779,-0.145 1.012,0 0,0 M -0.186,2.697 C 1.925,2.697 3.54,2.32 4.663,1.57 5.785,0.822 6.344,-0.344 6.344,-1.926 6.344,-2.912 6.118,-3.713 5.666,-4.328 5.212,-4.945 4.56,-5.428 3.709,-5.779 3.992,-6.131 4.291,-6.533 4.602,-6.984 4.913,-7.437 5.22,-7.912 5.524,-8.404 5.828,-8.898 6.122,-9.412 6.405,-9.947 6.69,-10.48 6.952,-11.004 7.196,-11.516 H 3.662 c -0.261,0.457 -0.521,0.922 -0.785,1.399 -0.265,0.472 -0.536,0.933 -0.814,1.379 -0.28,0.445 -0.554,0.869 -0.824,1.267 -0.273,0.397 -0.544,0.758 -0.815,1.084 h -1.56 v -5.129 H -4.3 v 13.85 c 0.688,0.135 1.401,0.229 2.139,0.281 0.737,0.055 1.395,0.082 1.975,0.082"
         style="fill:#f9f9f9;fill-opacity:1;fill-rule:nonzero;stroke:none"
         id="path3960" />
    </g>
    <g
       id="g3962"
       transform="matrix(1.4111111,0,0,-1.4111111,-31.294127,211.02828)"
       style="fill:#f9f9f9">
      <path
         d="M 0,0 V 5.369 H 3.627 V 4.355 H 1.209 V 3.301 H 3.356 V 2.309 H 1.209 V 1.016 H 3.803 V 0 Z"
         style="fill:#f9f9f9;fill-opacity:1;fill-rule:nonzero;stroke:none"
         id="path3964" />
    </g>
    <g
       id="g3966"
       transform="matrix(1.4111111,0,0,-1.4111111,-17.397223,211.02828)"
       style="fill:#f9f9f9">
      <path
         d="m 0,0 c -0.345,0.615 -0.72,1.221 -1.123,1.82 -0.404,0.6 -0.832,1.164 -1.288,1.698 V 0 h -1.192 v 5.369 h 0.985 C -2.447,5.199 -2.261,4.988 -2.052,4.74 -1.846,4.492 -1.636,4.229 -1.421,3.947 -1.207,3.668 -0.995,3.373 -0.782,3.072 -0.57,2.77 -0.372,2.479 -0.185,2.199 v 3.17 H 1.016 V 0 Z"
         style="fill:#f9f9f9;fill-opacity:1;fill-rule:nonzero;stroke:none"
         id="path3968" />
    </g>
    <g
       id="g3970"
       transform="matrix(1.4111111,0,0,-1.4111111,-9.7636737,211.02828)"
       style="fill:#f9f9f9">
      <path
         d="m 0,0 c -0.213,0.449 -0.424,0.918 -0.631,1.404 -0.208,0.485 -0.405,0.963 -0.594,1.438 -0.188,0.476 -0.359,0.931 -0.516,1.365 -0.157,0.434 -0.292,0.82 -0.407,1.162 h 1.333 C -0.713,5.061 -0.603,4.723 -0.479,4.365 -0.355,4.008 -0.23,3.65 -0.104,3.295 0.024,2.938 0.146,2.596 0.263,2.27 0.381,1.943 0.492,1.662 0.601,1.426 0.701,1.66 0.812,1.941 0.931,2.268 1.05,2.592 1.172,2.936 1.301,3.291 1.429,3.646 1.556,4.004 1.677,4.361 1.8,4.723 1.911,5.057 2.013,5.369 H 3.3 C 3.179,5.025 3.042,4.639 2.885,4.207 2.729,3.773 2.558,3.318 2.372,2.842 2.185,2.367 1.989,1.887 1.782,1.4 1.575,0.916 1.367,0.449 1.153,0 Z"
         style="fill:#f9f9f9;fill-opacity:1;fill-rule:nonzero;stroke:none"
         id="path3972" />
    </g>
    <path
       d="m -1.9476736,203.45204 h 1.707444 v 7.57624 h -1.707444 z"
       style="fill:#f9f9f9;fill-opacity:1;fill-rule:nonzero;stroke:none;stroke-width:1.41111"
       id="path3974" />
    <g
       id="g3976"
       transform="matrix(1.4111111,0,0,-1.4111111,6.0142384,204.816)"
       style="fill:#f9f9f9">
      <path
         d="m 0,0 c -0.088,0 -0.167,-0.004 -0.237,-0.012 -0.07,-0.004 -0.136,-0.008 -0.198,-0.013 v -1.457 h 0.341 c 0.455,0 0.78,0.054 0.976,0.171 0.197,0.112 0.294,0.307 0.294,0.582 0,0.262 -0.098,0.45 -0.297,0.561 C 0.679,-0.057 0.387,0 0,0 M -0.07,1.029 C 0.735,1.029 1.353,0.887 1.782,0.598 2.21,0.312 2.424,-0.135 2.424,-0.738 2.424,-1.115 2.338,-1.422 2.165,-1.656 1.992,-1.891 1.744,-2.076 1.417,-2.209 1.526,-2.344 1.64,-2.498 1.759,-2.672 1.877,-2.844 1.995,-3.025 2.111,-3.215 2.227,-3.402 2.339,-3.598 2.447,-3.805 2.556,-4.006 2.658,-4.207 2.75,-4.402 H 1.399 C 1.3,-4.229 1.2,-4.049 1.1,-3.869 0.999,-3.688 0.895,-3.512 0.788,-3.342 0.682,-3.172 0.576,-3.01 0.474,-2.857 0.37,-2.705 0.267,-2.568 0.162,-2.443 h -0.597 v -1.959 h -1.208 v 5.293 c 0.264,0.05 0.535,0.084 0.818,0.105 0.281,0.022 0.532,0.033 0.755,0.033"
         style="fill:#f9f9f9;fill-opacity:1;fill-rule:nonzero;stroke:none"
         id="path3978" />
    </g>
    <g
       id="g3980"
       transform="matrix(1.4111111,0,0,-1.4111111,14.410634,207.23308)"
       style="fill:#f9f9f9">
      <path
         d="m 0,0 c 0,-0.266 0.033,-0.502 0.098,-0.715 0.064,-0.211 0.156,-0.394 0.279,-0.547 0.121,-0.15 0.269,-0.267 0.446,-0.353 0.175,-0.08 0.377,-0.121 0.603,-0.121 0.221,0 0.423,0.041 0.599,0.121 0.18,0.086 0.33,0.203 0.451,0.353 0.123,0.153 0.216,0.336 0.279,0.547 C 2.82,-0.502 2.853,-0.266 2.853,0 2.853,0.262 2.82,0.502 2.755,0.717 2.692,0.93 2.599,1.113 2.476,1.268 2.355,1.416 2.205,1.535 2.025,1.619 1.849,1.701 1.647,1.744 1.426,1.744 1.2,1.744 0.998,1.699 0.823,1.615 0.646,1.529 0.498,1.41 0.377,1.258 0.254,1.105 0.162,0.922 0.098,0.707 0.033,0.494 0,0.258 0,0 M 4.099,0 C 4.099,-0.461 4.031,-0.865 3.894,-1.215 3.757,-1.562 3.57,-1.855 3.333,-2.092 3.095,-2.324 2.812,-2.502 2.484,-2.619 2.156,-2.74 1.803,-2.799 1.426,-2.799 c -0.368,0 -0.714,0.059 -1.039,0.18 -0.324,0.117 -0.61,0.295 -0.853,0.527 -0.242,0.237 -0.432,0.53 -0.572,0.877 -0.138,0.35 -0.21,0.754 -0.21,1.215 0,0.457 0.073,0.861 0.218,1.211 0.143,0.35 0.34,0.643 0.585,0.879 0.246,0.238 0.53,0.416 0.851,0.537 0.325,0.117 0.664,0.176 1.02,0.176 0.366,0 0.714,-0.059 1.038,-0.176 C 2.79,2.506 3.075,2.328 3.316,2.09 3.56,1.854 3.751,1.561 3.892,1.211 4.031,0.861 4.099,0.457 4.099,0"
         style="fill:#f9f9f9;fill-opacity:1;fill-rule:nonzero;stroke:none"
         id="path3982" />
    </g>
    <g
       id="g3984"
       transform="matrix(1.4111111,0,0,-1.4111111,28.889622,211.02828)"
       style="fill:#f9f9f9">
      <path
         d="m 0,0 c -0.348,0.615 -0.721,1.221 -1.124,1.82 -0.404,0.6 -0.833,1.164 -1.287,1.698 V 0 h -1.193 v 5.369 h 0.985 C -2.45,5.199 -2.261,4.988 -2.055,4.74 -1.848,4.492 -1.637,4.229 -1.424,3.947 -1.207,3.668 -0.995,3.373 -0.783,3.072 -0.571,2.77 -0.373,2.479 -0.187,2.199 v 3.17 H 1.014 V 0 Z"
         style="fill:#f9f9f9;fill-opacity:1;fill-rule:nonzero;stroke:none"
         id="path3986" />
    </g>
    <g
       id="g3988"
       transform="matrix(1.4111111,0,0,-1.4111111,36.268318,203.45188)"
       style="fill:#f9f9f9">
      <path
         d="m 0,0 c 0.094,-0.17 0.201,-0.381 0.322,-0.631 0.123,-0.252 0.25,-0.521 0.381,-0.814 0.131,-0.291 0.264,-0.59 0.393,-0.895 0.128,-0.305 0.251,-0.592 0.365,-0.859 0.114,0.267 0.235,0.554 0.364,0.859 0.13,0.305 0.261,0.604 0.393,0.895 0.132,0.293 0.259,0.562 0.382,0.814 0.12,0.25 0.229,0.461 0.322,0.631 h 1.099 c 0.052,-0.357 0.1,-0.756 0.145,-1.197 0.042,-0.444 0.083,-0.903 0.116,-1.379 0.032,-0.477 0.064,-0.959 0.093,-1.44 0.03,-0.478 0.053,-0.929 0.073,-1.353 H 3.271 C 3.254,-4.848 3.234,-4.281 3.207,-3.666 3.182,-3.051 3.144,-2.43 3.092,-1.807 2.999,-2.023 2.896,-2.264 2.781,-2.527 2.666,-2.789 2.553,-3.053 2.443,-3.316 2.331,-3.58 2.224,-3.832 2.121,-4.072 2.017,-4.312 1.929,-4.518 1.856,-4.687 H 1.013 c -0.075,0.169 -0.162,0.375 -0.265,0.615 -0.104,0.24 -0.213,0.492 -0.324,0.756 -0.11,0.263 -0.223,0.527 -0.338,0.789 -0.113,0.263 -0.217,0.504 -0.312,0.72 -0.05,-0.623 -0.088,-1.244 -0.115,-1.859 -0.025,-0.615 -0.046,-1.182 -0.061,-1.703 h -1.179 c 0.021,0.424 0.047,0.875 0.075,1.353 0.027,0.481 0.058,0.963 0.092,1.44 0.034,0.476 0.072,0.935 0.117,1.379 0.044,0.441 0.09,0.84 0.144,1.197 z"
         style="fill:#f9f9f9;fill-opacity:1;fill-rule:nonzero;stroke:none"
         id="path3990" />
    </g>
    <g
       id="g3992"
       transform="matrix(1.4111111,0,0,-1.4111111,46.251506,211.02828)"
       style="fill:#f9f9f9">
      <path
         d="M 0,0 V 5.369 H 3.626 V 4.355 H 1.208 V 3.301 H 3.356 V 2.309 H 1.208 V 1.016 H 3.805 V 0 Z"
         style="fill:#f9f9f9;fill-opacity:1;fill-rule:nonzero;stroke:none"
         id="path3994" />
    </g>
    <g
       id="g3996"
       transform="matrix(1.4111111,0,0,-1.4111111,60.149118,211.02828)"
       style="fill:#f9f9f9">
      <path
         d="m 0,0 c -0.346,0.615 -0.721,1.221 -1.125,1.82 -0.402,0.6 -0.83,1.164 -1.285,1.698 V 0 h -1.193 v 5.369 h 0.984 c 0.171,-0.17 0.36,-0.381 0.566,-0.629 0.206,-0.248 0.417,-0.511 0.631,-0.793 0.214,-0.279 0.427,-0.574 0.639,-0.875 0.212,-0.302 0.409,-0.593 0.597,-0.873 v 3.17 H 1.015 V 0 Z"
         style="fill:#f9f9f9;fill-opacity:1;fill-rule:nonzero;stroke:none"
         id="path3998" />
    </g>
    <g
       id="g4000"
       transform="matrix(1.4111111,0,0,-1.4111111,71.13899,203.45188)"
       style="fill:#f9f9f9">
      <path
         d="m 0,0 v -1.029 h -1.619 v -4.34 h -1.209 v 4.34 H -4.447 V 0 Z"
         style="fill:#f9f9f9;fill-opacity:1;fill-rule:nonzero;stroke:none"
         id="path4002" />
    </g>
    <g
       id="g4004"
       transform="matrix(1.4111111,0,0,-1.4111111,82.377502,205.0834)"
       style="fill:#f9f9f9">
      <path
         d="m 0,0 c 0,0.121 -0.038,0.227 -0.117,0.32 -0.076,0.094 -0.205,0.139 -0.387,0.139 -0.163,0 -0.292,-0.049 -0.383,-0.152 -0.089,-0.102 -0.135,-0.231 -0.135,-0.391 0,-0.135 0.038,-0.264 0.116,-0.391 0.078,-0.127 0.177,-0.248 0.3,-0.363 0.165,0.092 0.309,0.205 0.428,0.334 C -0.059,-0.373 0,-0.205 0,0 m -1.503,-2.674 c 0,-0.078 0.016,-0.158 0.046,-0.24 0.032,-0.082 0.083,-0.156 0.152,-0.227 0.071,-0.068 0.159,-0.129 0.269,-0.17 0.108,-0.043 0.24,-0.066 0.395,-0.066 0.218,0 0.408,0.029 0.572,0.086 0.163,0.061 0.299,0.135 0.408,0.228 l -1.248,1.241 C -0.982,-1.859 -1.052,-1.902 -1.122,-1.955 -1.19,-2.006 -1.253,-2.066 -1.309,-2.137 -1.368,-2.205 -1.413,-2.283 -1.448,-2.371 -1.484,-2.459 -1.503,-2.559 -1.503,-2.674 M -2.58,-2.789 c 0,0.195 0.029,0.375 0.085,0.535 0.057,0.166 0.133,0.313 0.228,0.445 0.097,0.131 0.207,0.247 0.334,0.346 0.125,0.102 0.258,0.192 0.398,0.27 -0.123,0.15 -0.235,0.314 -0.332,0.486 -0.097,0.174 -0.148,0.363 -0.148,0.57 0,0.453 0.138,0.803 0.411,1.049 0.274,0.246 0.651,0.367 1.131,0.367 0.243,0 0.457,-0.031 0.636,-0.095 C 0.344,1.119 0.494,1.031 0.616,0.92 0.738,0.809 0.83,0.68 0.891,0.531 0.954,0.385 0.985,0.227 0.985,0.055 0.985,-0.26 0.895,-0.539 0.717,-0.785 0.539,-1.031 0.312,-1.238 0.038,-1.4 l 0.874,-0.866 c 0.045,0.106 0.089,0.235 0.132,0.389 0.043,0.156 0.07,0.297 0.08,0.414 l 0.96,-0.123 C 2.076,-1.684 2.057,-1.791 2.03,-1.908 2.004,-2.025 1.973,-2.143 1.934,-2.262 1.894,-2.381 1.851,-2.5 1.801,-2.619 1.751,-2.736 1.699,-2.846 1.643,-2.943 1.809,-3.129 1.97,-3.33 2.127,-3.551 2.284,-3.771 2.421,-3.992 2.533,-4.213 h -1.18 c -0.043,0.068 -0.1,0.152 -0.173,0.254 -0.072,0.1 -0.145,0.186 -0.217,0.258 -0.205,-0.166 -0.447,-0.305 -0.722,-0.414 -0.273,-0.114 -0.58,-0.168 -0.921,-0.168 -0.362,0 -0.664,0.045 -0.907,0.135 -0.242,0.091 -0.438,0.207 -0.585,0.349 -0.147,0.141 -0.252,0.301 -0.315,0.481 -0.062,0.175 -0.093,0.353 -0.093,0.529"
         style="fill:#f9f9f9;fill-opacity:1;fill-rule:nonzero;stroke:none"
         id="path4006" />
    </g>
    <g
       id="g4008"
       transform="matrix(1.4111111,0,0,-1.4111111,96.253666,204.816)"
       style="fill:#f9f9f9">
      <path
         d="m 0,0 c -0.087,0 -0.166,-0.004 -0.236,-0.012 -0.07,-0.004 -0.137,-0.008 -0.198,-0.013 v -1.457 h 0.343 c 0.452,0 0.778,0.054 0.973,0.171 0.198,0.112 0.296,0.307 0.296,0.582 0,0.262 -0.099,0.45 -0.298,0.561 C 0.681,-0.057 0.387,0 0,0 m -0.069,1.029 c 0.804,0 1.423,-0.142 1.851,-0.431 0.429,-0.286 0.643,-0.733 0.643,-1.336 0,-0.377 -0.086,-0.684 -0.258,-0.918 -0.174,-0.235 -0.422,-0.42 -0.75,-0.553 0.11,-0.135 0.223,-0.289 0.342,-0.463 0.118,-0.172 0.237,-0.353 0.352,-0.543 0.117,-0.187 0.229,-0.383 0.337,-0.59 0.109,-0.201 0.21,-0.402 0.302,-0.597 H 1.399 C 1.301,-4.229 1.202,-4.049 1.1,-3.869 0.999,-3.688 0.895,-3.512 0.788,-3.342 0.683,-3.172 0.577,-3.01 0.475,-2.857 0.369,-2.705 0.267,-2.568 0.163,-2.443 h -0.597 v -1.959 h -1.209 v 5.293 c 0.263,0.05 0.536,0.084 0.818,0.105 0.282,0.022 0.534,0.033 0.756,0.033"
         style="fill:#f9f9f9;fill-opacity:1;fill-rule:nonzero;stroke:none"
         id="path4010" />
    </g>
    <g
       id="g4012"
       transform="matrix(1.4111111,0,0,-1.4111111,103.41534,211.02828)"
       style="fill:#f9f9f9">
      <path
         d="M 0,0 V 5.369 H 3.625 V 4.355 H 1.21 V 3.301 H 3.356 V 2.309 H 1.21 V 1.016 H 3.805 V 0 Z"
         style="fill:#f9f9f9;fill-opacity:1;fill-rule:nonzero;stroke:none"
         id="path4014" />
    </g>
    <g
       id="g4016"
       transform="matrix(1.4111111,0,0,-1.4111111,115.68396,211.18264)"
       style="fill:#f9f9f9">
      <path
         d="m 0,0 c -0.872,0 -1.539,0.244 -1.996,0.727 -0.455,0.486 -0.685,1.179 -0.685,2.072 0,0.441 0.071,0.84 0.208,1.187 0.14,0.35 0.331,0.643 0.575,0.883 0.241,0.24 0.531,0.426 0.868,0.547 0.335,0.125 0.699,0.186 1.093,0.186 0.227,0 0.433,-0.016 0.62,-0.049 C 0.868,5.52 1.031,5.48 1.17,5.437 1.31,5.393 1.426,5.346 1.518,5.299 1.611,5.254 1.68,5.219 1.721,5.191 L 1.372,4.215 C 1.208,4.303 1.014,4.377 0.795,4.439 0.575,4.5 0.325,4.533 0.046,4.533 -0.14,4.533 -0.322,4.5 -0.5,4.439 -0.678,4.377 -0.834,4.277 -0.972,4.143 -1.109,4.006 -1.217,3.828 -1.301,3.611 -1.384,3.393 -1.426,3.129 -1.426,2.82 c 0,-0.248 0.027,-0.48 0.082,-0.693 0.053,-0.213 0.141,-0.398 0.264,-0.553 0.121,-0.156 0.278,-0.277 0.476,-0.371 0.196,-0.09 0.433,-0.135 0.712,-0.135 0.175,0 0.334,0.012 0.474,0.032 0.138,0.021 0.261,0.046 0.372,0.074 0.108,0.029 0.204,0.06 0.287,0.096 0.081,0.037 0.156,0.07 0.222,0.103 L 1.799,0.404 C 1.628,0.299 1.386,0.207 1.077,0.125 0.768,0.043 0.408,0 0,0"
         style="fill:#f9f9f9;fill-opacity:1;fill-rule:nonzero;stroke:none"
         id="path4018" />
    </g>
    <g
       id="g4020"
       transform="matrix(1.4111111,0,0,-1.4111111,124.53996,206.55788)"
       style="fill:#f9f9f9">
      <path
         d="m 0,0 c 0.217,0.365 0.423,0.729 0.62,1.098 0.196,0.363 0.377,0.73 0.544,1.103 H 2.496 C 2.201,1.623 1.896,1.061 1.583,0.518 c -0.317,-0.539 -0.65,-1.084 -1,-1.633 v -2.053 h -1.209 v 2.037 c -0.352,0.547 -0.687,1.094 -1.004,1.643 -0.318,0.547 -0.624,1.111 -0.919,1.689 h 1.404 C -0.982,1.828 -0.803,1.461 -0.612,1.098 -0.42,0.729 -0.218,0.365 0,0"
         style="fill:#f9f9f9;fill-opacity:1;fill-rule:nonzero;stroke:none"
         id="path4022" />
    </g>
    <g
       id="g4024"
       transform="matrix(1.4111111,0,0,-1.4111111,134.13876,211.18264)"
       style="fill:#f9f9f9">
      <path
         d="m 0,0 c -0.872,0 -1.535,0.244 -1.994,0.727 -0.457,0.486 -0.686,1.179 -0.686,2.072 0,0.441 0.07,0.84 0.21,1.187 0.139,0.35 0.33,0.643 0.574,0.883 0.241,0.24 0.531,0.426 0.868,0.547 0.336,0.125 0.7,0.186 1.091,0.186 0.229,0 0.435,-0.016 0.621,-0.049 C 0.868,5.52 1.031,5.48 1.172,5.437 1.312,5.393 1.429,5.346 1.52,5.299 1.614,5.254 1.68,5.219 1.722,5.191 L 1.372,4.215 C 1.208,4.303 1.016,4.377 0.798,4.439 0.575,4.5 0.328,4.533 0.048,4.533 -0.137,4.533 -0.32,4.5 -0.5,4.439 -0.676,4.377 -0.834,4.277 -0.972,4.143 -1.109,4.006 -1.217,3.828 -1.3,3.611 -1.382,3.393 -1.423,3.129 -1.423,2.82 c 0,-0.248 0.024,-0.48 0.081,-0.693 0.054,-0.213 0.142,-0.398 0.262,-0.553 0.121,-0.156 0.282,-0.277 0.477,-0.371 0.198,-0.09 0.435,-0.135 0.713,-0.135 0.176,0 0.334,0.012 0.473,0.032 0.14,0.021 0.265,0.046 0.371,0.074 0.11,0.029 0.204,0.06 0.287,0.096 0.084,0.037 0.158,0.07 0.225,0.103 L 1.799,0.404 C 1.628,0.299 1.389,0.207 1.079,0.125 0.769,0.043 0.411,0 0,0"
         style="fill:#f9f9f9;fill-opacity:1;fill-rule:nonzero;stroke:none"
         id="path4026" />
    </g>
    <g
       id="g4028"
       transform="matrix(1.4111111,0,0,-1.4111111,145.01899,209.562)"
       style="fill:#f9f9f9">
      <path
         d="M 0,0 V -1.039 H -3.586 V 4.33 h 1.209 V 0 Z"
         style="fill:#f9f9f9;fill-opacity:1;fill-rule:nonzero;stroke:none"
         id="path4030" />
    </g>
    <path
       d="m 148.30038,203.45204 h 1.70322 v 7.57624 h -1.70322 z"
       style="fill:#f9f9f9;fill-opacity:1;fill-rule:nonzero;stroke:none;stroke-width:1.41111"
       id="path4032" />
    <g
       id="g4034"
       transform="matrix(1.4111111,0,0,-1.4111111,159.0268,211.02828)"
       style="fill:#f9f9f9">
      <path
         d="m 0,0 c -0.345,0.615 -0.72,1.221 -1.124,1.82 -0.403,0.6 -0.83,1.164 -1.286,1.698 V 0 h -1.193 v 5.369 h 0.985 C -2.447,5.199 -2.26,4.988 -2.054,4.74 -1.846,4.492 -1.636,4.229 -1.421,3.947 -1.207,3.668 -0.995,3.373 -0.782,3.072 -0.57,2.77 -0.373,2.479 -0.187,2.199 v 3.17 H 1.014 V 0 Z"
         style="fill:#f9f9f9;fill-opacity:1;fill-rule:nonzero;stroke:none"
         id="path4036" />
    </g>
    <g
       id="g4038"
       transform="matrix(1.4111111,0,0,-1.4111111,168.09149,204.76364)"
       style="fill:#f9f9f9">
      <path
         d="m 0,0 c -0.564,0 -0.97,-0.156 -1.22,-0.471 -0.252,-0.31 -0.376,-0.738 -0.376,-1.279 0,-0.266 0.031,-0.504 0.093,-0.719 0.063,-0.213 0.154,-0.4 0.279,-0.552 0.123,-0.155 0.279,-0.276 0.465,-0.362 0.187,-0.086 0.403,-0.127 0.651,-0.127 0.133,0 0.248,0.002 0.346,0.01 0.094,0.002 0.177,0.014 0.25,0.027 v 1.868 H 1.697 V -4.26 C 1.551,-4.32 1.32,-4.381 1,-4.445 0.679,-4.508 0.283,-4.539 -0.187,-4.539 c -0.402,0 -0.768,0.059 -1.095,0.184 -0.329,0.123 -0.61,0.304 -0.841,0.542 -0.231,0.239 -0.412,0.53 -0.539,0.875 -0.125,0.346 -0.19,0.741 -0.19,1.188 0,0.447 0.072,0.846 0.208,1.193 0.14,0.344 0.334,0.637 0.575,0.877 0.242,0.241 0.529,0.426 0.856,0.547 0.328,0.125 0.679,0.186 1.051,0.186 0.252,0 0.481,-0.016 0.684,-0.049 C 0.727,0.971 0.903,0.932 1.049,0.889 1.197,0.844 1.318,0.797 1.414,0.75 1.51,0.705 1.578,0.67 1.62,0.643 L 1.272,-0.328 C 1.106,-0.236 0.916,-0.162 0.7,-0.098 0.488,-0.033 0.251,0 0,0"
         style="fill:#f9f9f9;fill-opacity:1;fill-rule:nonzero;stroke:none"
         id="path4040" />
    </g>
    <g
       id="g4042"
       transform="matrix(1.4111111,0,0,-1.4111111,-59.497722,194.49176)">
      <path
         d="M 0,0 H 6.505 L 9.758,-5.633 6.505,-11.264 H 0 l -0.899,1.563 -0.624,1.076 -1.104,1.916 -0.622,1.076 -1.108,1.916 -0.622,1.076 -1.105,1.916 -0.621,1.075 -0.905,1.568 h -8.715 l -4.356,-7.551 4.356,-7.549 h 8.715 l 0.905,1.563 -1.107,1.918 -0.901,-1.563 h -6.505 l -3.251,5.631 3.251,5.633 h 6.505 l 0.901,-1.562 0.623,-1.079 1.105,-1.914 0.62,-1.078 1.107,-1.918 0.623,-1.074 1.107,-1.916 0.619,-1.078 0.903,-1.563 H 7.613 L 11.97,-5.633 7.613,1.918 H -1.105 L -2.008,0.35 -0.899,-1.562 Z"
         style="fill:#4e8298;fill-opacity:1;fill-rule:nonzero;stroke:none"
         id="path4044" />
    </g>
    <g
       id="g4046"
       transform="matrix(1.4111111,0,0,-1.4111111,-46.316111,187.56856)"
       style="fill:#008080">
      <path
         d="m 0,0 h -12.174 l -0.901,-1.561 1.105,-1.914 0.903,1.561 h 9.961 l 4.979,-8.625 -4.979,-8.627 h -9.961 l -0.902,1.564 -0.621,1.077 -1.108,1.918 -0.623,1.076 -1.105,1.916 -0.62,1.076 -1.107,1.914 -0.62,1.078 -0.906,1.565 h -5.258 l -2.631,-4.557 2.631,-4.555 h 5.258 l 0.906,1.563 -1.105,1.916 -0.902,-1.565 h -3.052 l -1.523,2.641 1.523,2.639 h 3.052 l 0.902,-1.561 0.622,-1.078 1.103,-1.918 0.622,-1.074 1.105,-1.916 0.62,-1.078 1.108,-1.916 0.623,-1.075 0.901,-1.564 H 0 l 6.084,10.541 z"
         style="fill:#008080;fill-opacity:1;fill-rule:nonzero;stroke:none"
         id="path4048" />
    </g>
    <g
       id="g4050"
       transform="matrix(1.4111111,0,0,-1.4111111,-67.794914,217.31492)"
       style="fill:#008080">
      <path
         d="M 0,0 0.9,1.564 -0.205,3.479 -1.108,1.914 h -9.96 l -4.975,8.627 4.975,8.625 h 9.96 L -0.205,17.6 0.416,16.523 1.523,14.611 2.146,13.533 3.252,11.619 3.872,10.541 4.98,8.623 5.601,7.549 6.504,5.986 h 5.26 l 2.629,4.555 -2.629,4.557 H 6.504 L 5.601,13.533 6.705,11.619 7.607,13.18 h 3.05 L 12.181,10.541 10.657,7.9 H 7.607 L 6.705,9.465 6.083,10.541 4.98,12.457 4.356,13.533 3.252,15.449 2.631,16.523 1.523,18.439 0.9,19.52 0,21.08 H -12.171 L -18.258,10.541 -12.171,0 Z"
         style="fill:#008080;fill-opacity:1;fill-rule:nonzero;stroke:none"
         id="path4052" />
    </g>
    <g
       id="g4054"
       transform="matrix(1.4111111,0,0,-1.4111111,-53.361931,186.04992)">
      <path
         d="m 0,0 -4.346,7.531 h -8.716 L -17.409,0 h 2.209 l 3.242,5.615 h 6.505 L -2.209,0 Z"
         style="fill:#4e8298;fill-opacity:1;fill-rule:nonzero;stroke:none"
         id="path4056" />
    </g>
    <g
       id="g4058"
       transform="matrix(1.4111111,0,0,-1.4111111,-58.23407,186.04992)">
      <path
         d="M 0,0 -2.621,4.539 H -7.884 L -10.502,0 h 2.211 l 1.516,2.623 h 3.047 L -2.213,0 Z"
         style="fill:#4e8298;fill-opacity:1;fill-rule:nonzero;stroke:none"
         id="path4060" />
    </g>
    <g
       id="g4062"
       transform="matrix(1.4111111,0,0,-1.4111111,-72.674536,173.90392)"
       style="fill:#008080">
      <path
         d="m 0,0 h 9.962 l 4.97,-8.607 h 2.212 L 11.07,1.915 H -1.101 L -7.18,-8.607 h 2.211 z"
         style="fill:#008080;fill-opacity:1;fill-rule:nonzero;stroke:none"
         id="path4064" />
    </g>
    <path
       d="m -56.433494,202.13404 h 3.055055 v 0.6096 h -3.055055 z m 2.802467,-1.90076 h -2.547055 l -1.274232,2.20696 1.274232,2.2056 h 2.547055 l 1.27282,-2.2056 z"
       style="fill:#b3b3b3;fill-opacity:1;fill-rule:nonzero;stroke:none;stroke-width:1.41111"
       id="path4066" />
    <g
       id="g4068"
       transform="matrix(1.4111111,0,0,-1.4111111,-77.54795,203.4794)"
       style="fill:#b3b3b3">
      <path
         d="M 0,0 -0.218,0.377 1.648,1.469 1.868,1.096 Z M -0.079,2.301 -0.98,0.736 -0.079,-0.826 H 1.729 L 2.631,0.736 1.729,2.301 Z"
         style="fill:#b3b3b3;fill-opacity:1;fill-rule:nonzero;stroke:none"
         id="path4070" />
    </g>
    <path
       d="m -65.336194,187.57984 h -0.61242 v -3.0508 h 0.61242 z m -1.583266,-3.72108 -0.667456,1.15708 -0.594078,1.02588 h 0.386644 0.87489 l 0.0028,0.002 0.437444,0.75496 0.833968,1.44636 0.833964,-1.44636 0.437448,-0.75496 0.0028,-0.002 h 0.8763 0.38384 l -1.260124,-2.18296 z"
       style="fill:#b3b3b3;fill-opacity:1;fill-rule:nonzero;stroke:none;stroke-width:1.41111"
       id="path4072" />
  </g>
  <g
     inkscape:groupmode="layer"
     id="layer2"
     inkscape:label="Layer 2"
     transform="translate(-2.1551135,-63.186272)" />
</svg>
